<svg xmlns="http://www.w3.org/2000/svg" viewBox="0 0 32 32">
    <path id="as" style="text-indent:0;text-align:start;line-height:normal;text-transform:none;block-progression:tb;-inkscape-font-specification:Bitstream Vera Sans" d="M 9 6 C 6.0350155 6 3.5685656 8.165217 3.09375 11 L 1 11 L 1 13 L 3.09375 13 C 3.5685656 15.834783 6.0350155 18 9 18 C 12.301864 18 15 15.301864 15 12 C 15 11.43497 15.43497 11 16 11 C 16.56503 11 17 11.43497 17 12 C 17 15.301864 19.698136 18 23 18 C 25.964985 18 28.431434 15.834783 28.90625 13 L 31 13 L 31 11 L 28.90625 11 C 28.431434 8.165217 25.964985 6 23 6 C 20.611308 6 18.526272 7.4062811 17.5625 9.4375 C 17.107522 9.1582917 16.567934 9 16 9 C 15.432066 9 14.892478 9.1582917 14.4375 9.4375 C 13.473728 7.4062811 11.388692 6 9 6 z M 9 8 C 11.220984 8 13 9.7790164 13 12 C 13 14.220984 11.220984 16 9 16 C 6.7790164 16 5 14.220984 5 12 C 5 9.7790164 6.7790164 8 9 8 z M 23 8 C 25.220984 8 27 9.7790164 27 12 C 27 14.220984 25.220984 16 23 16 C 20.779016 16 19 14.220984 19 12 C 19 9.7790164 20.779016 8 23 8 z M 14.5 21 C 12.88268 21 11.885381 22.088931 11.21875 22.84375 C 10.885434 23.22116 10.606939 23.528394 10.34375 23.71875 C 10.080561 23.909106 9.8572641 24 9.5 24 C 8.9760238 24 8.6622834 23.733209 8.375 23.375 C 8.0877166 23.016791 7.9375 22.65625 7.9375 22.65625 L 6.0625 23.34375 C 6.0625 23.34375 6.2977834 23.983209 6.8125 24.625 C 7.3272166 25.266791 8.2319762 26 9.5 26 C 10.292236 26 10.98547 25.715894 11.5 25.34375 C 12.01453 24.971606 12.389691 24.52884 12.71875 24.15625 C 13.376869 23.411069 13.71532 23 14.5 23 C 14.42066 23 14.612249 23.05331 14.78125 23.21875 C 14.950251 23.384193 15.0625 23.53125 15.0625 23.53125 L 15.34375 24 L 15.90625 24 L 16.09375 24 L 16.625 24 L 16.9375 23.5625 C 16.9375 23.5625 17.047388 23.385202 17.21875 23.21875 C 17.390112 23.052298 17.579343 23 17.5 23 C 18.28468 23 18.623131 23.411069 19.28125 24.15625 C 19.610309 24.52884 19.98547 24.971606 20.5 25.34375 C 21.01453 25.715894 21.707764 26 22.5 26 C 23.768024 26 24.672783 25.266791 25.1875 24.625 C 25.702217 23.983209 25.9375 23.34375 25.9375 23.34375 L 24.0625 22.65625 C 24.0625 22.65625 23.943533 23.016791 23.65625 23.375 C 23.368967 23.733209 23.023976 24 22.5 24 C 22.142736 24 21.950689 23.909106 21.6875 23.71875 C 21.424311 23.528394 21.114566 23.22116 20.78125 22.84375 C 20.114619 22.088931 19.11732 21 17.5 21 C 16.800885 21 16.337477 21.322137 16 21.625 C 15.663445 21.321145 15.199115 21 14.5 21 z" color="#000" overflow="visible" font-family="Bitstream Vera Sans"/>
</svg>