<svg aria-hidden="true" style="position: absolute; width: 0; height: 0; overflow: hidden;" version="1.1" xmlns="http://www.w3.org/2000/svg" xmlns:xlink="http://www.w3.org/1999/xlink">
<defs>
<symbol id="icon-user" viewBox="0 0 32 32">
<path d="M14 4c-3.854 0-7 3.146-7 7 0 2.409 1.231 4.552 3.094 5.813-3.567 1.53-6.094 5.069-6.094 9.188h2c0-4.431 3.569-8 8-8 1.376 0 2.654 0.358 3.781 0.969-1.11 1.374-1.781 3.134-1.781 5.031 0 4.406 3.594 8 8 8s8-3.594 8-8c0-4.406-3.594-8-8-8-1.747 0-3.369 0.575-4.688 1.531-0.442-0.278-0.92-0.511-1.406-0.719 1.863-1.26 3.094-3.404 3.094-5.813 0-3.854-3.146-7-7-7zM14 6c2.773 0 5 2.227 5 5s-2.227 5-5 5c-2.773 0-5-2.227-5-5s2.227-5 5-5zM24 18c3.326 0 6 2.674 6 6s-2.674 6-6 6c-3.326 0-6-2.674-6-6s2.674-6 6-6zM23 20v3h-3v2h3v3h2v-3h3v-2h-3v-3h-2z"></path>
</symbol>
<symbol id="icon-edit" viewBox="0 0 32 32">
<path d="M23.906 3.969c-1.047 0-2.093 0.406-2.906 1.219l-15.813 15.813-0.063 0.313-1.094 5.5-0.313 1.469 1.469-0.313 5.813-1.156 15.813-15.813c1.626-1.626 1.626-4.186 0-5.813-0.813-0.813-1.859-1.219-2.906-1.219zM23.906 5.875c0.503 0 1.013 0.232 1.5 0.719 0.974 0.974 0.974 2.026 0 3l-0.719 0.688-2.969-2.969 0.688-0.719c0.487-0.487 0.997-0.719 1.5-0.719zM20.313 8.719l2.969 2.969-12.094 12.094c-0.654-1.281-1.688-2.314-2.969-2.969l12.094-12.094zM6.938 22.438c1.199 0.486 2.139 1.426 2.625 2.625l-3.281 0.656 0.656-3.281z"></path>
</symbol>
<symbol id="icon-login" viewBox="0 0 32 32">
<path d="M9 6c-2.965 0-5.431 2.165-5.906 5h-2.094v2h2.094c0.475 2.835 2.941 5 5.906 5 3.302 0 6-2.698 6-6 0-0.565 0.435-1 1-1s1 0.435 1 1c0 3.302 2.698 6 6 6 2.965 0 5.431-2.165 5.906-5h2.094v-2h-2.094c-0.475-2.835-2.941-5-5.906-5-2.389 0-4.474 1.406-5.438 3.438-0.455-0.279-0.995-0.438-1.563-0.438s-1.108 0.158-1.563 0.438c-0.964-2.031-3.049-3.438-5.438-3.438zM9 8c2.221 0 4 1.779 4 4s-1.779 4-4 4c-2.221 0-4-1.779-4-4s1.779-4 4-4zM23 8c2.221 0 4 1.779 4 4s-1.779 4-4 4c-2.221 0-4-1.779-4-4s1.779-4 4-4zM14.5 21c-1.617 0-2.615 1.089-3.281 1.844-0.333 0.377-0.612 0.685-0.875 0.875s-0.486 0.281-0.844 0.281c-0.524 0-0.838-0.267-1.125-0.625s-0.438-0.719-0.438-0.719l-1.875 0.688c0 0 0.235 0.639 0.75 1.281s1.419 1.375 2.688 1.375c0.792 0 1.485-0.284 2-0.656s0.89-0.815 1.219-1.188c0.658-0.745 0.997-1.156 1.781-1.156-0.079 0 0.112 0.053 0.281 0.219s0.281 0.313 0.281 0.313l0.281 0.469h1.281l0.313-0.438c0 0 0.11-0.177 0.281-0.344s0.361-0.219 0.281-0.219c0.785 0 1.123 0.411 1.781 1.156 0.329 0.373 0.704 0.815 1.219 1.188s1.208 0.656 2 0.656c1.268 0 2.173-0.733 2.688-1.375s0.75-1.281 0.75-1.281l-1.875-0.688c0 0-0.119 0.361-0.406 0.719s-0.632 0.625-1.156 0.625c-0.357 0-0.549-0.091-0.813-0.281s-0.573-0.498-0.906-0.875c-0.667-0.755-1.664-1.844-3.281-1.844-0.699 0-1.163 0.322-1.5 0.625-0.337-0.304-0.801-0.625-1.5-0.625z"></path>
</symbol>
<symbol id="icon-apachekafka" viewBox="0 0 32 32">
<path d="M21.683 17.724c-1.247 0-2.363 0.552-3.128 1.421l-1.96-1.388c0.208-0.573 0.328-1.188 0.328-1.832 0-0.633-0.115-1.237-0.316-1.803l1.956-1.373c0.765 0.865 1.879 1.413 3.121 1.413 2.3 0 4.172-1.871 4.172-4.172s-1.872-4.172-4.172-4.172-4.172 1.871-4.172 4.172c0 0.412 0.063 0.809 0.173 1.185l-1.957 1.373c-0.817-1.012-1.995-1.721-3.336-1.937v-2.359c1.889-0.397 3.313-2.076 3.313-4.081 0-2.301-1.872-4.172-4.172-4.172s-4.171 1.871-4.171 4.172c0 1.979 1.387 3.637 3.239 4.063v2.389c-2.527 0.444-4.455 2.649-4.455 5.301 0 2.665 1.947 4.879 4.493 5.308v2.523c-1.871 0.411-3.276 2.080-3.276 4.072-0.001 2.301 1.869 4.172 4.169 4.172s4.172-1.871 4.172-4.172c0-1.993-1.405-3.661-3.276-4.072v-2.523c1.288-0.217 2.453-0.895 3.28-1.908l1.973 1.397c-0.109 0.372-0.171 0.765-0.171 1.173 0 2.3 1.872 4.172 4.172 4.172s4.172-1.871 4.172-4.172-1.873-4.172-4.173-4.172zM21.683 7.969c1.116 0 2.023 0.908 2.023 2.023s-0.907 2.023-2.023 2.023c-1.115 0-2.023-0.908-2.023-2.023s0.908-2.023 2.023-2.023zM9.511 4.172c0-1.115 0.907-2.023 2.023-2.023s2.023 0.908 2.023 2.023-0.907 2.023-2.023 2.023-2.023-0.908-2.023-2.023zM13.556 27.828c0 1.115-0.907 2.023-2.023 2.023s-2.023-0.908-2.023-2.023 0.907-2.023 2.023-2.023 2.023 0.908 2.023 2.023zM11.533 18.747c-1.556 0-2.821-1.265-2.821-2.821s1.265-2.821 2.821-2.821 2.821 1.265 2.821 2.821-1.265 2.821-2.821 2.821zM21.683 23.919c-1.116 0-2.023-0.908-2.023-2.023s0.907-2.023 2.023-2.023 2.023 0.908 2.023 2.023-0.907 2.023-2.023 2.023z"></path>
</symbol>
<symbol id="icon-redhat" viewBox="0 0 32 32">
<path fill="#e00" style="fill: var(--color1, #e00)" d="M21.345 17.848c2.103 0 5.147-0.435 5.147-2.936 0.001-0.021 0.001-0.046 0.001-0.072 0-0.178-0.020-0.352-0.057-0.519l0.003 0.016-1.253-5.44c-0.288-1.197-0.541-1.74-2.643-2.791-1.631-0.833-5.184-2.211-6.235-2.211-0.977 0-1.263 1.261-2.429 1.261-1.123 0-1.956-0.941-3.007-0.941-1.009 0-1.667 0.687-2.173 2.101 0 0-1.413 3.987-1.596 4.565-0.024 0.085-0.038 0.183-0.038 0.285 0 0.015 0 0.030 0.001 0.044l-0-0.002c0 1.549 6.103 6.632 14.28 6.632zM26.813 15.928c0.291 1.376 0.291 1.52 0.291 1.703 0 2.353-2.645 3.66-6.124 3.66-7.86 0.005-14.747-4.601-14.747-7.645 0-0.002 0-0.004 0-0.006 0-0.444 0.093-0.866 0.261-1.248l-0.008 0.020c-2.825 0.141-6.487 0.647-6.487 3.877 0 5.292 12.54 11.815 22.468 11.815 7.613 0 9.532-3.443 9.532-6.16 0-2.14-1.849-4.567-5.183-6.016z"></path>
</symbol>
<symbol id="icon-puzzle" viewBox="0 0 35 32">
<path d="M20.042 3.907c0-1.945-1.559-3.907-5.042-3.907-3.067 0-5.129 1.57-5.129 3.907 0 1.364 0.552 1.986 0.917 2.398 0.193 0.217 0.271 0.315 0.271 0.413 0 0.162 0 0.26-0.558 0.282h-6.098c-2.345 0-4.403 1.869-4.403 4v3.732c0.038 0.944 0.571 1.531 1.392 1.531 0.467 0 0.813-0.267 1.149-0.526 0.45-0.345 0.959-0.737 1.959-0.737 1.696 0 3.5 1.402 3.5 4 0 2.629-1.828 4.462-3.469 4.462-0.99 0-1.508-0.429-1.966-0.807-0.343-0.284-0.697-0.578-1.174-0.578-0.82 0-1.354 0.587-1.392 1.551v4.102c0.001 2.235 2.1 4.27 4.404 4.27h6.129c0.928-0.038 1.527-0.585 1.527-1.396 0-0.487-0.277-0.8-0.522-1.076-0.328-0.369-0.666-0.75-0.666-1.734 0-1.766 1.604-2.907 4.085-2.907s4.086 1.141 4.086 2.907c0 0.984-0.339 1.365-0.666 1.734-0.245 0.276-0.523 0.589-0.523 1.076 0 0.822 0.585 1.356 1.548 1.395l3.941 0.001c2.152 0 3.656-1.677 3.656-4.078v-4.65c0.026-0.122 0.334-0.588 0.804-0.588 0.096 0 0.193 0.079 0.409 0.271 0.41 0.367 1.031 0.922 2.393 0.922 2.184-0.001 4.396-1.675 4.396-4.877 0-3.454-2.009-5-4-5-1.344 0-2.12 0.614-2.634 1.020-0.228 0.18-0.442 0.35-0.564 0.35-0.471 0-0.779-0.468-0.802-0.571-0.001-0.008-0.001-0.016-0.002-0.024v-3.583c0-2.429-1.538-4.192-3.656-4.192h-3.921c-0.013-0.001-0.026-0.002-0.040-0.003-0.528-0.020-0.528-0.117-0.528-0.279 0-0.098 0.078-0.195 0.271-0.413 0.365-0.411 0.918-1.034 0.918-2.398zM18.376 5.642c-0.245 0.276-0.523 0.59-0.523 1.077 0 0.55 0.251 1.212 1.471 1.277 0.023 0.003 0.046 0.004 0.070 0.004h3.948c1.744 0 2.658 1.606 2.658 3.192v3.633c0 0.036-0.007 0.071 0 0.105 0.092 0.611 0.842 1.439 1.802 1.439 0.47 0 0.816-0.274 1.185-0.565 0.476-0.377 1.017-0.804 2.013-0.804 1.822 0 3 1.57 3 4 0 2.664-1.761 3.876-3.396 3.876-0.979 0-1.359-0.339-1.727-0.667-0.276-0.246-0.589-0.525-1.075-0.525-0.96 0-1.711 0.829-1.802 1.44-0.007 0.034 0 0.069 0 0.105v4.694c0 1.531-0.823 3.077-2.658 3.077h-3.921c-0.568-0.023-0.568-0.285-0.568-0.396 0-0.097 0.078-0.195 0.271-0.413 0.365-0.412 0.918-1.034 0.918-2.398 0-1.945-1.572-3.907-5.086-3.907-3.041 0-5.085 1.57-5.085 3.907 0 1.364 0.552 1.986 0.918 2.398 0.192 0.217 0.271 0.315 0.271 0.413 0 0.112 0 0.374-0.548 0.396h-6.109c-1.717 0-3.403-1.62-3.403-3.27v-4.082c0.022-0.571 0.281-0.571 0.392-0.571 0.116 0 0.32 0.169 0.537 0.348 0.498 0.413 1.253 1.037 2.603 1.037 2.157 0 4.468-2.195 4.468-5.462 0-3.248-2.318-5-4.5-5-1.34 0-2.079 0.568-2.568 0.945-0.222 0.171-0.414 0.318-0.54 0.318-0.11 0-0.369 0-0.392-0.551v-3.712c0-1.768 1.794-3 3.403-3h6.115c0.016 0 0.031-0.001 0.047-0.002v0c1.235-0.046 1.494-0.722 1.494-1.28 0-0.487-0.277-0.8-0.522-1.076-0.328-0.369-0.666-0.75-0.666-1.735 0-1.739 1.659-2.907 4.129-2.907 2.455 0 4.042 1.141 4.042 2.907 0 0.984-0.339 1.366-0.666 1.735z"></path>
</symbol>
<symbol id="icon-global" viewBox="0 0 32 32">
<path d="M0.034 16.668c0.354 8.511 7.369 15.332 15.966 15.332s15.612-6.821 15.966-15.332c0.019-0.053 0.034-0.108 0.034-0.168 0-0.036-0.013-0.067-0.020-0.1 0.003-0.134 0.020-0.265 0.020-0.4 0-8.822-7.178-16-16-16s-16 7.178-16 16c0 0.135 0.017 0.266 0.020 0.4-0.007 0.033-0.020 0.064-0.020 0.1 0 0.060 0.015 0.115 0.034 0.168zM24.921 22.742c-1.319-0.552-2.735-0.979-4.215-1.271 0.158-1.453 0.251-2.962 0.28-4.47h4.98c-0.091 2.054-0.456 3.993-1.045 5.741zM26.965 17h3.984c-0.186 2.806-1.138 5.403-2.663 7.579-0.759-0.533-1.577-1.019-2.457-1.44 0.645-1.869 1.042-3.943 1.136-6.139zM12.389 22.286c1.178-0.184 2.387-0.286 3.611-0.286s2.433 0.102 3.61 0.286c-0.694 5.335-2.21 8.714-3.61 8.714s-2.916-3.379-3.611-8.714zM13.908 30.664c-2.751-0.882-5.078-3.471-6.482-6.984 1.246-0.525 2.586-0.935 3.99-1.217 0.459 3.496 1.298 6.542 2.492 8.201zM12.274 10.709c1.217 0.188 2.465 0.291 3.726 0.291s2.509-0.103 3.726-0.291c0.172 1.62 0.274 3.388 0.274 5.291h-8c0-1.903 0.102-3.671 0.274-5.291zM19.985 17c-0.028 1.525-0.118 2.961-0.26 4.291-1.216-0.188-2.463-0.291-3.725-0.291s-2.509 0.103-3.726 0.291c-0.173-1.626-0.237-3.057-0.26-4.291h7.971zM20.585 22.463c1.404 0.282 2.743 0.692 3.99 1.217-1.404 3.513-3.731 6.102-6.482 6.984 1.193-1.659 2.032-4.705 2.492-8.201zM21 16c0-1.836-0.102-3.696-0.294-5.47 1.48-0.292 2.896-0.72 4.215-1.271 0.684 2.029 1.079 4.315 1.079 6.741h-5zM20.585 9.537c-0.46-3.496-1.298-6.543-2.493-8.201 2.751 0.882 5.078 3.471 6.482 6.984-1.246 0.525-2.585 0.936-3.989 1.217zM19.611 9.714c-1.178 0.184-2.387 0.286-3.611 0.286s-2.433-0.102-3.611-0.286c0.695-5.335 2.211-8.714 3.611-8.714s2.916 3.379 3.611 8.714zM11.415 9.537c-1.404-0.282-2.743-0.692-3.99-1.217 1.404-3.513 3.731-6.102 6.482-6.984-1.193 1.659-2.032 4.705-2.492 8.201zM11.294 10.53c-0.192 1.774-0.294 3.634-0.294 5.47h-5c0-2.426 0.395-4.712 1.079-6.742 1.319 0.552 2.735 0.979 4.215 1.272zM11.014 17c0.029 1.508 0.122 3.017 0.28 4.471-1.48 0.292-2.896 0.72-4.215 1.271-0.589-1.748-0.954-3.687-1.045-5.742h4.98zM6.17 23.139c-0.88 0.422-1.697 0.907-2.456 1.44-1.525-2.176-2.477-4.772-2.663-7.579h3.984c0.094 2.196 0.491 4.27 1.135 6.139zM4.313 25.38c0.685-0.479 1.417-0.922 2.207-1.305 1.004 2.485 2.449 4.548 4.186 5.943-2.526-0.958-4.729-2.568-6.393-4.638zM21.294 30.017c1.738-1.394 3.182-3.458 4.186-5.943 0.79 0.384 1.522 0.826 2.207 1.305-1.664 2.071-3.867 3.681-6.393 4.638zM27 16c0-2.567-0.428-4.987-1.17-7.139 0.88-0.422 1.698-0.907 2.457-1.44 1.704 2.434 2.713 5.389 2.713 8.579h-4zM27.688 6.62c-0.685 0.479-1.417 0.921-2.207 1.305-1.004-2.485-2.449-4.549-4.186-5.943 2.525 0.958 4.728 2.568 6.393 4.638zM10.706 1.983c-1.738 1.394-3.182 3.458-4.186 5.943-0.791-0.384-1.522-0.827-2.207-1.306 1.664-2.070 3.867-3.68 6.393-4.637zM3.714 7.421c0.758 0.533 1.576 1.018 2.456 1.44-0.742 2.152-1.17 4.572-1.17 7.139h-4c0-3.19 1.009-6.145 2.714-8.579z"></path>
</symbol>
<symbol id="icon-key" viewBox="0 0 32 32">
<path d="M14.683 14.698c0.117 0 0.235-0.041 0.33-0.124l11.317-9.922-0.66-0.752-11.317 9.921c-0.208 0.182-0.229 0.498-0.046 0.706 0.099 0.113 0.237 0.171 0.376 0.171zM10.188 32c6.142 0 9.812-4.83 9.812-9.5 0-1.346-0.322-2.829-0.798-3.792l4.522-2.261c0.169-0.085 0.276-0.258 0.276-0.447v-4h3c0.011 0 0.102-0.006 0.113-0.006 0.666-0.045 0.865-0.257 0.887-0.994v-4h3c0.129 0 0.218 0.014 0.278 0.023 0.121 0.019 0.347 0.054 0.543-0.122 0.202-0.18 0.193-0.408 0.185-0.609-0.002-0.072-0.006-0.167-0.006-0.292v-4.531c0-0.81-0.659-1.469-1.469-1.469h-3.875c-0.354 0-0.698 0.129-0.969 0.364l-13.187 11.56c-0.649-0.13-1.63-0.299-2.313-0.299-5.617 0-10.187 4.57-10.187 10.187s4.57 10.188 10.188 10.188zM10.188 12.625c0.501 0 1.359 0.12 2.354 0.328 0.155 0.034 0.314-0.010 0.432-0.113l13.371-11.722c0.087-0.076 0.198-0.118 0.311-0.118h3.875c0.259 0 0.469 0.21 0.469 0.469v4.531h-3.5c-0.276 0-0.5 0.224-0.5 0.5v4.5h-3.5c-0.276 0-0.5 0.224-0.5 0.5v4.191l-4.724 2.362c-0.131 0.065-0.227 0.186-0.262 0.328s-0.006 0.293 0.080 0.412c0.44 0.607 0.906 2.114 0.906 3.707 0 4.178-3.296 8.5-8.812 8.5-5.066 0-9.188-4.122-9.188-9.188s4.122-9.187 9.188-9.187zM8.5 27c1.93 0 3.5-1.57 3.5-3.5s-1.57-3.5-3.5-3.5-3.5 1.57-3.5 3.5 1.57 3.5 3.5 3.5zM8.5 21c1.378 0 2.5 1.122 2.5 2.5s-1.122 2.5-2.5 2.5-2.5-1.122-2.5-2.5 1.122-2.5 2.5-2.5z"></path>
</symbol>
<symbol id="icon-minimize" viewBox="0 0 32 32">
<path d="M8 25.333h16v2.667h-16z"></path>
</symbol>
<symbol id="icon-atom" viewBox="0 0 32 32">
<path fill="#66595c" style="fill: var(--color1, #66595c)" d="M27.328 12.035c-2.911-1.24-6.821-2.040-11-2.26-0.667-0.040-1.316-0.053-1.933-0.053 3.091-3.773 6.403-6.307 8.583-6.387 0.429-0.017 0.793 0.073 1.084 0.261 0.941 0.611 1.207 2.357 0.727 4.787-0.053 0.333 0.16 0.657 0.48 0.72 0.333 0.067 0.653-0.147 0.72-0.48 0.6-3.040 0.16-5.128-1.253-6.051-0.507-0.331-1.12-0.487-1.8-0.461-2.733 0.103-6.587 3.067-10.12 7.627-1.539 0.047-2.987 0.173-4.309 0.383-0.861-3.863-0.52-6.636 0.792-7.303 0.184-0.097 0.38-0.147 0.609-0.165 0.929-0.072 2.213 0.527 3.613 1.693 0.259 0.213 0.648 0.187 0.861-0.080 0.217-0.26 0.179-0.64-0.080-0.86-1.68-1.392-3.229-2.072-4.496-1.979-0.381 0.033-0.741 0.131-1.071 0.293-1.587 0.809-2.227 3.103-1.827 6.451 0.093 0.693 0.213 1.416 0.387 2.16-4.375 0.875-7.161 2.627-7.281 4.832-0.080 1.56 1.153 3.045 3.573 4.296 0.299 0.153 0.669 0.040 0.827-0.267 0.152-0.299 0.040-0.667-0.267-0.821-1.933-0.995-2.973-2.117-2.911-3.144 0.067-1.44 2.363-2.92 6.347-3.707 0.36 1.325 0.827 2.709 1.4 4.12-1.357 2.517-2.341 4.996-2.849 7.2-0.747 3.287-0.347 5.627 1.147 6.597 0.48 0.312 1.040 0.467 1.663 0.467 1.247 0 2.756-0.613 4.463-1.829 0.28-0.2 0.341-0.58 0.147-0.853-0.196-0.275-0.577-0.341-0.853-0.141-2.059 1.471-3.792 1.963-4.749 1.337-1.013-0.66-1.235-2.591-0.613-5.301 0.427-1.848 1.209-3.907 2.277-6.027 0.267 0.584 0.547 1.168 0.84 1.751 1.9 3.728 4.227 6.969 6.547 9.127 1.848 1.72 3.565 2.617 4.98 2.617 0.467 0 0.907-0.1 1.301-0.297 1.527-0.78 2.187-2.947 1.864-6.1-0.299-2.951-1.413-6.547-3.139-10.133-0.147-0.303-0.512-0.431-0.813-0.288-0.307 0.147-0.44 0.513-0.293 0.816 3.587 7.469 3.84 13.587 1.827 14.613-2.12 1.084-7.232-3.14-11.187-10.907-0.453-0.873-0.849-1.733-1.2-2.573 0.453-0.811 0.933-1.627 1.46-2.44 0.527-0.805 1.075-1.584 1.632-2.327h0.525c0.72 0 1.501 0.013 2.312 0.064 8.707 0.457 14.633 3.413 14.512 5.779-0.053 1.020-1.232 2.051-3.233 2.827-0.312 0.128-0.469 0.48-0.347 0.795 0.093 0.24 0.32 0.389 0.568 0.389 0.077 0 0.152-0.013 0.223-0.040 2.54-0.987 3.933-2.341 4.013-3.907 0.093-1.773-1.56-3.48-4.667-4.8zM10.773 12.6c-0.36 0.553-0.693 1.103-1.019 1.659-0.389-1.024-0.709-2.013-0.964-2.953 0.951-0.147 1.98-0.253 3.080-0.32-0.373 0.52-0.739 1.059-1.093 1.613zM16.007 14.167c-1.013 0-1.833 0.821-1.833 1.833s0.821 1.833 1.833 1.833v0c1.013 0 1.833-0.821 1.833-1.833s-0.821-1.833-1.833-1.833v0z"></path>
</symbol>
<symbol id="icon-battery" viewBox="0 0 20 20">
<path d="M15.408 10c0-2.766 1.277-4.32 2.277-4.32 0.363 0 1.315 0 1.315 0-0.668-1.059-1.221-1.68-3.658-1.68h-10.008c-3.734 0-5.334 3.441-5.334 6s1.6 6 5.334 6h10.008c2.438 0 2.99-0.621 3.658-1.68 0 0-0.315 0-1.315 0s-2.277-1.554-2.277-4.32zM12.688 11.795c-0.164 0.25-0.676 0.016-0.676 0.016l-2.957-1.338c0 0-0.264 0.67-0.467 1.141-0.205 0.471-0.361 1.004-1.209 0.408-0.849-0.598-3.581-3.25-3.581-3.25s-0.345-0.284-0.173-0.551c0.163-0.252 0.676-0.016 0.676-0.016l2.956 1.336c0 0 0.265-0.668 0.468-1.139 0.205-0.47 0.361-1.006 1.209-0.408 0.849 0.596 3.58 3.25 3.58 3.25s0.345 0.283 0.174 0.551zM18.874 7.928h-0.749c-0.559 0-1.105 0.754-1.105 1.979 0 1.227 0.547 1.98 1.105 1.98h0.749c0.56 0 1.126-0.754 1.126-1.98s-0.566-1.979-1.126-1.979z"></path>
</symbol>
<symbol id="icon-infinity" viewBox="0 0 20 20">
<path d="M15.902 5.6c-2.079 0-4.358 1.158-5.902 2.916-1.545-1.758-3.825-2.916-5.904-2.916-1.98 0-4.096 1.156-4.096 4.4s2.116 4.398 4.096 4.4v0c2.079 0 4.358-1.158 5.903-2.916 1.544 1.758 3.823 2.916 5.902 2.916 1.981 0 4.099-1.156 4.099-4.4s-2.118-4.4-4.098-4.4zM4.096 12.641c-1.512 0-2.296-0.889-2.296-2.641s0.784-2.641 2.296-2.641c1.673 0 3.614 1.086 4.807 2.641-1.193 1.555-3.134 2.641-4.807 2.641zM15.902 12.641c-1.673 0-3.614-1.086-4.807-2.641 1.192-1.555 3.135-2.641 4.807-2.641 1.512 0 2.298 0.889 2.298 2.641s-0.786 2.641-2.298 2.641z"></path>
</symbol>
<symbol id="icon-arrow-long-left" viewBox="0 0 20 20">
<path d="M0.75 10l5.25-5.5v3.5h13v4h-13v3.5l-5.25-5.5z"></path>
</symbol>
<symbol id="icon-reply-all" viewBox="0 0 20 20">
<path d="M7.225 5.767v-2.681l-7.225 6.456 7.225 6.691v-2.777l-4.225-3.914 4.225-3.775zM12.225 6.953v-3.867l-7.225 6.456 7.225 6.691v-4.357c3.292 0 5.291 0.422 7.775 4.81 0-0.001-0.368-9.733-7.775-9.733z"></path>
</symbol>
<symbol id="icon-air" viewBox="0 0 20 20">
<path d="M2.643 6.357c1.747-1.5 3.127-2.686 6.872-0.57 1.799 1.016 3.25 1.4 4.457 1.398 2.115 0 3.486-1.176 4.671-2.193 0.423-0.363 0.477-1.008 0.122-1.439-0.357-0.432-0.987-0.488-1.41-0.125-1.746 1.502-3.127 2.688-6.872 0.57-4.948-2.793-7.266-0.803-9.128 0.797-0.422 0.363-0.476 1.006-0.121 1.439 0.356 0.43 0.986 0.487 1.409 0.123zM17.355 8.535c-1.746 1.5-3.127 2.688-6.872 0.57-4.948-2.795-7.266-0.804-9.128 0.795-0.422 0.363-0.477 1.008-0.121 1.439s0.986 0.488 1.409 0.125c1.747-1.501 3.127-2.687 6.872-0.572 1.799 1.018 3.25 1.4 4.457 1.4 2.115 0 3.486-1.176 4.671-2.195 0.423-0.363 0.477-1.008 0.122-1.438-0.356-0.433-0.987-0.487-1.41-0.124zM17.355 13.641c-1.746 1.502-3.127 2.688-6.872 0.572-4.948-2.795-7.266-0.805-9.128 0.795-0.422 0.363-0.477 1.008-0.121 1.439s0.986 0.486 1.409 0.123c1.747-1.5 3.127-2.685 6.872-0.57 1.799 1.016 3.25 1.4 4.457 1.4 2.115 0 3.486-1.178 4.671-2.195 0.423-0.363 0.477-1.008 0.122-1.439s-0.987-0.487-1.41-0.125z"></path>
</symbol>
<symbol id="icon-location-pin" viewBox="0 0 20 20">
<path d="M10 2.009c-2.762 0-5 2.229-5 4.99 0 4.774 5 11 5 11s5-6.227 5-11c0-2.76-2.238-4.99-5-4.99zM10 9.76c-1.492 0-2.7-1.209-2.7-2.7s1.208-2.7 2.7-2.7c1.49 0 2.699 1.209 2.699 2.7s-1.209 2.7-2.699 2.7z"></path>
</symbol>
<symbol id="icon-onedrive" viewBox="0 0 20 20">
<path d="M6.429 9.847c0.487-1.961 2.249-3.394 4.341-3.394 1.236 0 2.394 0.505 3.232 1.382 0.354-0.114 0.768-0.202 1.136-0.21v-0.13c0-2.482-1.845-4.495-4.12-4.495-1.626 0-3.020 1.038-3.69 2.531-0.494-0.334-1.071-0.535-1.694-0.535-1.785 0-3.231 1.577-3.231 3.523 0 0.21 0.024 0.414 0.057 0.613-1.377 0.136-2.455 1.544-2.455 3.080 0 0.016 0.004 0.029 0.004 0.045-0.001 0.014-0.009 0.028-0.009 0.042 0 0.615 0.214 1.177 0.561 1.631 0.492 0.662 1.262 1.070 2.14 1.070h1.261c-0.246-0.488-0.398-1.032-0.398-1.615-0.001-1.737 1.23-3.192 2.865-3.538zM17.889 11.777c-0.025 0-0.050 0.007-0.075 0.008 0.007-0.074 0.022-0.146 0.022-0.222 0-1.472-1.193-2.664-2.665-2.664-0.586 0-1.123 0.194-1.564 0.516-0.546-1.015-1.604-1.712-2.838-1.712-1.788 0-3.237 1.449-3.237 3.237 0 0.023 0.006 0.043 0.007 0.066-0.118-0.018-0.236-0.036-0.359-0.036-1.335 0-2.415 1.081-2.415 2.415 0 0.167 0.017 0.33 0.049 0.487 0.228 1.211 1.288 2.128 2.566 2.128h10.706v-0.019c1.072-0.102 1.914-0.994 1.914-2.092 0-1.166-0.945-2.112-2.111-2.112z"></path>
</symbol>
<symbol id="star" viewBox="0 0 20 20">
<path d="M18.8 8.022h-6.413l-2.387-6.722-2.389 6.722h-6.412l5.232 3.947-1.871 6.929 5.44-4.154 5.438 4.154-1.869-6.929 5.231-3.947zM10 12.783l-3.014 2.5 1.243-3.562-2.851-2.3 3.522 0.101 1.1-4.040 1.099 4.040 3.521-0.101-2.851 2.3 1.243 3.562-3.012-2.5z"></path>
</symbol>
<symbol id="icon-command" viewBox="0 0 32 32">
<path d="M23 28c-2.757 0-5-2.243-5-5v-3h-4v3c0 2.757-2.243 5-5 5s-5-2.243-5-5 2.243-5 5-5h3v-4h-3c-2.757 0-5-2.243-5-5s2.243-5 5-5 5 2.243 5 5v3h4v-3c0-2.757 2.243-5 5-5s5 2.243 5 5-2.243 5-5 5h-3v4h3c2.757 0 5 2.243 5 5s-2.243 5-5 5zM20 20v3c0 1.654 1.346 3 3 3s3-1.346 3-3-1.346-3-3-3h-3zM9 20c-1.654 0-3 1.346-3 3s1.346 3 3 3 3-1.346 3-3v-3h-3zM14 18h4v-4h-4v4zM20 12h3c1.654 0 3-1.346 3-3s-1.346-3-3-3-3 1.346-3 3v3zM9 6c-1.654 0-3 1.346-3 3s1.346 3 3 3h3v-3c0-1.654-1.346-3-3-3z"></path>
</symbol>
<symbol id="icon-instagram" viewBox="0 0 32 32">
<path d="M16 2.881c4.275 0 4.781 0.019 6.462 0.094 1.563 0.069 2.406 0.331 2.969 0.55 0.744 0.288 1.281 0.638 1.837 1.194 0.563 0.563 0.906 1.094 1.2 1.838 0.219 0.563 0.481 1.412 0.55 2.969 0.075 1.688 0.094 2.194 0.094 6.463s-0.019 4.781-0.094 6.463c-0.069 1.563-0.331 2.406-0.55 2.969-0.288 0.744-0.637 1.281-1.194 1.837-0.563 0.563-1.094 0.906-1.837 1.2-0.563 0.219-1.413 0.481-2.969 0.55-1.688 0.075-2.194 0.094-6.463 0.094s-4.781-0.019-6.463-0.094c-1.563-0.069-2.406-0.331-2.969-0.55-0.744-0.288-1.281-0.637-1.838-1.194-0.563-0.563-0.906-1.094-1.2-1.837-0.219-0.563-0.481-1.413-0.55-2.969-0.075-1.688-0.094-2.194-0.094-6.463s0.019-4.781 0.094-6.463c0.069-1.563 0.331-2.406 0.55-2.969 0.288-0.744 0.638-1.281 1.194-1.838 0.563-0.563 1.094-0.906 1.838-1.2 0.563-0.219 1.412-0.481 2.969-0.55 1.681-0.075 2.188-0.094 6.463-0.094zM16 0c-4.344 0-4.887 0.019-6.594 0.094-1.7 0.075-2.869 0.35-3.881 0.744-1.056 0.412-1.95 0.956-2.837 1.85-0.894 0.888-1.438 1.781-1.85 2.831-0.394 1.019-0.669 2.181-0.744 3.881-0.075 1.713-0.094 2.256-0.094 6.6s0.019 4.887 0.094 6.594c0.075 1.7 0.35 2.869 0.744 3.881 0.413 1.056 0.956 1.95 1.85 2.837 0.887 0.887 1.781 1.438 2.831 1.844 1.019 0.394 2.181 0.669 3.881 0.744 1.706 0.075 2.25 0.094 6.594 0.094s4.888-0.019 6.594-0.094c1.7-0.075 2.869-0.35 3.881-0.744 1.050-0.406 1.944-0.956 2.831-1.844s1.438-1.781 1.844-2.831c0.394-1.019 0.669-2.181 0.744-3.881 0.075-1.706 0.094-2.25 0.094-6.594s-0.019-4.887-0.094-6.594c-0.075-1.7-0.35-2.869-0.744-3.881-0.394-1.063-0.938-1.956-1.831-2.844-0.887-0.887-1.781-1.438-2.831-1.844-1.019-0.394-2.181-0.669-3.881-0.744-1.712-0.081-2.256-0.1-6.6-0.1v0z"></path>
<path d="M16 7.781c-4.537 0-8.219 3.681-8.219 8.219s3.681 8.219 8.219 8.219 8.219-3.681 8.219-8.219c0-4.537-3.681-8.219-8.219-8.219zM16 21.331c-2.944 0-5.331-2.387-5.331-5.331s2.387-5.331 5.331-5.331c2.944 0 5.331 2.387 5.331 5.331s-2.387 5.331-5.331 5.331z"></path>
<path d="M26.462 7.456c0 1.060-0.859 1.919-1.919 1.919s-1.919-0.859-1.919-1.919c0-1.060 0.859-1.919 1.919-1.919s1.919 0.859 1.919 1.919z"></path>
</symbol>
<symbol id="icon-linkedin" viewBox="0 0 32 32">
<path d="M29 0h-26c-1.65 0-3 1.35-3 3v26c0 1.65 1.35 3 3 3h26c1.65 0 3-1.35 3-3v-26c0-1.65-1.35-3-3-3zM12 26h-4v-14h4v14zM10 10c-1.106 0-2-0.894-2-2s0.894-2 2-2c1.106 0 2 0.894 2 2s-0.894 2-2 2zM26 26h-4v-8c0-1.106-0.894-2-2-2s-2 0.894-2 2v8h-4v-14h4v2.481c0.825-1.131 2.087-2.481 3.5-2.481 2.488 0 4.5 2.238 4.5 5v9z"></path>
</symbol>
<symbol id="icon-linkedin2" viewBox="0 0 32 32">
<path d="M12 12h5.535v2.837h0.079c0.77-1.381 2.655-2.837 5.464-2.837 5.842 0 6.922 3.637 6.922 8.367v9.633h-5.769v-8.54c0-2.037-0.042-4.657-3.001-4.657-3.005 0-3.463 2.218-3.463 4.509v8.688h-5.767v-18z"></path>
<path d="M2 12h6v18h-6v-18z"></path>
<path d="M8 7c0 1.657-1.343 3-3 3s-3-1.343-3-3c0-1.657 1.343-3 3-3s3 1.343 3 3z"></path>
</symbol>
<symbol id="icon-git" viewBox="0 0 32 32">
<path d="M31.397 14.575l-13.972-13.971c-0.804-0.805-2.109-0.805-2.915 0l-3.246 3.246 2.443 2.443c0.392-0.187 0.83-0.293 1.293-0.293 1.657 0 3 1.343 3 3 0 0.463-0.105 0.902-0.293 1.293l3.999 3.999c0.392-0.187 0.83-0.293 1.293-0.293 1.657 0 3 1.343 3 3s-1.343 3-3 3-3-1.343-3-3c0-0.463 0.105-0.902 0.293-1.293l-3.999-3.999c-0.095 0.046-0.193 0.086-0.293 0.121v8.343c1.165 0.412 2 1.522 2 2.829 0 1.657-1.343 3-3 3s-3-1.343-3-3c0-1.306 0.835-2.417 2-2.829v-8.343c-1.165-0.412-2-1.522-2-2.829 0-0.463 0.105-0.902 0.293-1.293l-2.443-2.443-9.247 9.246c-0.805 0.806-0.805 2.11 0 2.915l13.973 13.971c0.804 0.805 2.109 0.805 2.915 0l13.906-13.906c0.805-0.805 0.805-2.111-0-2.915z"></path>
</symbol>
<symbol id="icon-cancel-circle" viewBox="0 0 32 32">
<path d="M16 0c-8.837 0-16 7.163-16 16s7.163 16 16 16 16-7.163 16-16-7.163-16-16-16zM16 29c-7.18 0-13-5.82-13-13s5.82-13 13-13 13 5.82 13 13-5.82 13-13 13z"></path>
<path d="M21 8l-5 5-5-5-3 3 5 5-5 5 3 3 5-5 5 5 3-3-5-5 5-5z"></path>
</symbol>
</defs>
</svg>
