<svg aria-hidden="true" style="position: absolute; width: 0; height: 0; overflow: hidden;" version="1.1" xmlns="http://www.w3.org/2000/svg" xmlns:xlink="http://www.w3.org/1999/xlink">
<defs>
<symbol id="icon-user" viewBox="0 0 32 32">
<path d="M14 4c-3.854 0-7 3.146-7 7 0 2.409 1.231 4.552 3.094 5.813-3.567 1.53-6.094 5.069-6.094 9.188h2c0-4.431 3.569-8 8-8 1.376 0 2.654 0.358 3.781 0.969-1.11 1.374-1.781 3.134-1.781 5.031 0 4.406 3.594 8 8 8s8-3.594 8-8c0-4.406-3.594-8-8-8-1.747 0-3.369 0.575-4.688 1.531-0.442-0.278-0.92-0.511-1.406-0.719 1.863-1.26 3.094-3.404 3.094-5.813 0-3.854-3.146-7-7-7zM14 6c2.773 0 5 2.227 5 5s-2.227 5-5 5c-2.773 0-5-2.227-5-5s2.227-5 5-5zM24 18c3.326 0 6 2.674 6 6s-2.674 6-6 6c-3.326 0-6-2.674-6-6s2.674-6 6-6zM23 20v3h-3v2h3v3h2v-3h3v-2h-3v-3h-2z"></path>
</symbol>
<symbol id="icon-edit" viewBox="0 0 32 32">
<path d="M23.906 3.969c-1.047 0-2.093 0.406-2.906 1.219l-15.813 15.813-0.063 0.313-1.094 5.5-0.313 1.469 1.469-0.313 5.813-1.156 15.813-15.813c1.626-1.626 1.626-4.186 0-5.813-0.813-0.813-1.859-1.219-2.906-1.219zM23.906 5.875c0.503 0 1.013 0.232 1.5 0.719 0.974 0.974 0.974 2.026 0 3l-0.719 0.688-2.969-2.969 0.688-0.719c0.487-0.487 0.997-0.719 1.5-0.719zM20.313 8.719l2.969 2.969-12.094 12.094c-0.654-1.281-1.688-2.314-2.969-2.969l12.094-12.094zM6.938 22.438c1.199 0.486 2.139 1.426 2.625 2.625l-3.281 0.656 0.656-3.281z"></path>
</symbol>
<symbol id="icon-login" viewBox="0 0 32 32">
<path d="M9 6c-2.965 0-5.431 2.165-5.906 5h-2.094v2h2.094c0.475 2.835 2.941 5 5.906 5 3.302 0 6-2.698 6-6 0-0.565 0.435-1 1-1s1 0.435 1 1c0 3.302 2.698 6 6 6 2.965 0 5.431-2.165 5.906-5h2.094v-2h-2.094c-0.475-2.835-2.941-5-5.906-5-2.389 0-4.474 1.406-5.438 3.438-0.455-0.279-0.995-0.438-1.563-0.438s-1.108 0.158-1.563 0.438c-0.964-2.031-3.049-3.438-5.438-3.438zM9 8c2.221 0 4 1.779 4 4s-1.779 4-4 4c-2.221 0-4-1.779-4-4s1.779-4 4-4zM23 8c2.221 0 4 1.779 4 4s-1.779 4-4 4c-2.221 0-4-1.779-4-4s1.779-4 4-4zM14.5 21c-1.617 0-2.615 1.089-3.281 1.844-0.333 0.377-0.612 0.685-0.875 0.875s-0.486 0.281-0.844 0.281c-0.524 0-0.838-0.267-1.125-0.625s-0.438-0.719-0.438-0.719l-1.875 0.688c0 0 0.235 0.639 0.75 1.281s1.419 1.375 2.688 1.375c0.792 0 1.485-0.284 2-0.656s0.89-0.815 1.219-1.188c0.658-0.745 0.997-1.156 1.781-1.156-0.079 0 0.112 0.053 0.281 0.219s0.281 0.313 0.281 0.313l0.281 0.469h1.281l0.313-0.438c0 0 0.11-0.177 0.281-0.344s0.361-0.219 0.281-0.219c0.785 0 1.123 0.411 1.781 1.156 0.329 0.373 0.704 0.815 1.219 1.188s1.208 0.656 2 0.656c1.268 0 2.173-0.733 2.688-1.375s0.75-1.281 0.75-1.281l-1.875-0.688c0 0-0.119 0.361-0.406 0.719s-0.632 0.625-1.156 0.625c-0.357 0-0.549-0.091-0.813-0.281s-0.573-0.498-0.906-0.875c-0.667-0.755-1.664-1.844-3.281-1.844-0.699 0-1.163 0.322-1.5 0.625-0.337-0.304-0.801-0.625-1.5-0.625z"></path>
</symbol>
<symbol id="icon-apachekafka" viewBox="0 0 32 32">
<path d="M21.683 17.724c-1.247 0-2.363 0.552-3.128 1.421l-1.96-1.388c0.208-0.573 0.328-1.188 0.328-1.832 0-0.633-0.115-1.237-0.316-1.803l1.956-1.373c0.765 0.865 1.879 1.413 3.121 1.413 2.3 0 4.172-1.871 4.172-4.172s-1.872-4.172-4.172-4.172-4.172 1.871-4.172 4.172c0 0.412 0.063 0.809 0.173 1.185l-1.957 1.373c-0.817-1.012-1.995-1.721-3.336-1.937v-2.359c1.889-0.397 3.313-2.076 3.313-4.081 0-2.301-1.872-4.172-4.172-4.172s-4.171 1.871-4.171 4.172c0 1.979 1.387 3.637 3.239 4.063v2.389c-2.527 0.444-4.455 2.649-4.455 5.301 0 2.665 1.947 4.879 4.493 5.308v2.523c-1.871 0.411-3.276 2.080-3.276 4.072-0.001 2.301 1.869 4.172 4.169 4.172s4.172-1.871 4.172-4.172c0-1.993-1.405-3.661-3.276-4.072v-2.523c1.288-0.217 2.453-0.895 3.28-1.908l1.973 1.397c-0.109 0.372-0.171 0.765-0.171 1.173 0 2.3 1.872 4.172 4.172 4.172s4.172-1.871 4.172-4.172-1.873-4.172-4.173-4.172zM21.683 7.969c1.116 0 2.023 0.908 2.023 2.023s-0.907 2.023-2.023 2.023c-1.115 0-2.023-0.908-2.023-2.023s0.908-2.023 2.023-2.023zM9.511 4.172c0-1.115 0.907-2.023 2.023-2.023s2.023 0.908 2.023 2.023-0.907 2.023-2.023 2.023-2.023-0.908-2.023-2.023zM13.556 27.828c0 1.115-0.907 2.023-2.023 2.023s-2.023-0.908-2.023-2.023 0.907-2.023 2.023-2.023 2.023 0.908 2.023 2.023zM11.533 18.747c-1.556 0-2.821-1.265-2.821-2.821s1.265-2.821 2.821-2.821 2.821 1.265 2.821 2.821-1.265 2.821-2.821 2.821zM21.683 23.919c-1.116 0-2.023-0.908-2.023-2.023s0.907-2.023 2.023-2.023 2.023 0.908 2.023 2.023-0.907 2.023-2.023 2.023z"></path>
</symbol>
<symbol id="icon-redhat" viewBox="0 0 32 32">
<path fill="#e00" style="fill: var(--color1, #e00)" d="M21.345 17.848c2.103 0 5.147-0.435 5.147-2.936 0.001-0.021 0.001-0.046 0.001-0.072 0-0.178-0.020-0.352-0.057-0.519l0.003 0.016-1.253-5.44c-0.288-1.197-0.541-1.74-2.643-2.791-1.631-0.833-5.184-2.211-6.235-2.211-0.977 0-1.263 1.261-2.429 1.261-1.123 0-1.956-0.941-3.007-0.941-1.009 0-1.667 0.687-2.173 2.101 0 0-1.413 3.987-1.596 4.565-0.024 0.085-0.038 0.183-0.038 0.285 0 0.015 0 0.030 0.001 0.044l-0-0.002c0 1.549 6.103 6.632 14.28 6.632zM26.813 15.928c0.291 1.376 0.291 1.52 0.291 1.703 0 2.353-2.645 3.66-6.124 3.66-7.86 0.005-14.747-4.601-14.747-7.645 0-0.002 0-0.004 0-0.006 0-0.444 0.093-0.866 0.261-1.248l-0.008 0.020c-2.825 0.141-6.487 0.647-6.487 3.877 0 5.292 12.54 11.815 22.468 11.815 7.613 0 9.532-3.443 9.532-6.16 0-2.14-1.849-4.567-5.183-6.016z"></path>
</symbol>
</defs>
</svg>
